HIERARCHY
ROOT hip
{
	OFFSET 0.000000 0.000000 0.000000
	CHANNELS 6 Xposition Yposition Zposition Xrotation Zrotation Yrotation 
	JOINT abdomen
	{
		OFFSET 0.000000 3.422050 0.000000
		CHANNELS 3 Xrotation Zrotation Yrotation 
		JOINT chest
		{
			OFFSET 0.000000 8.486693 -0.684411
			CHANNELS 3 Xrotation Zrotation Yrotation 
			JOINT neck
			{
				OFFSET 0.000000 10.266162 -0.273764
				CHANNELS 3 Xrotation Zrotation Yrotation 
				JOINT head
				{
					OFFSET 0.000000 3.148285 0.000000
					CHANNELS 3 Xrotation Zrotation Yrotation 
					End Site
					{
						OFFSET 0.000000 3.148289 0.000000
					}
				}
			}
			JOINT lCollar
			{
				OFFSET 3.422053 6.707223 -0.821293
				CHANNELS 3 Yrotation Zrotation Xrotation 
				JOINT lShldr
				{
					OFFSET 3.285171 0.000000 0.000000
					CHANNELS 3 Zrotation Yrotation Xrotation 
					JOINT lForeArm
					{
						OFFSET 10.129278 0.000000 0.000000
						CHANNELS 3 Yrotation Zrotation Xrotation 
						JOINT lHand
						{
							OFFSET 8.486692 0.000000 0.000000
							CHANNELS 3 Zrotation Yrotation Xrotation 
							End Site
							{
								OFFSET 4.106464 0.000000 0.000000
							}
						}
					}
				}
			}
			JOINT rCollar
			{
				OFFSET -3.558935 6.707223 -0.821293
				CHANNELS 3 Yrotation Zrotation Xrotation 
				JOINT rShldr
				{
					OFFSET -3.148289 0.000000 0.000000
					CHANNELS 3 Zrotation Yrotation Xrotation 
					JOINT rForeArm
					{
						OFFSET -10.266159 0.000000 0.000000
						CHANNELS 3 Yrotation Zrotation Xrotation 
						JOINT rHand
						{
							OFFSET -8.349810 0.000000 0.000000
							CHANNELS 3 Zrotation Yrotation Xrotation 
							End Site
							{
								OFFSET -4.106464 0.000000 0.000000
							}
						}
					}
				}
			}
		}
	}
	JOINT lThigh
	{
		OFFSET 5.338403 -1.642589 1.368821
		CHANNELS 3 Xrotation Zrotation Yrotation 
		JOINT lShin
		{
			OFFSET -2.053232 -20.121670 0.000000
			CHANNELS 3 Xrotation Zrotation Yrotation 
			JOINT lFoot
			{
				OFFSET 0.000000 -19.300380 -1.231939
				CHANNELS 3 Xrotation Yrotation Zrotation 
				End Site
				{
					OFFSET 0.000000 -2.463878 4.653993
				}
			}
		}
	}
	JOINT rThigh
	{
		OFFSET -5.338403 -1.642589 1.368821
		CHANNELS 3 Xrotation Zrotation Yrotation 
		JOINT rShin
		{
			OFFSET 2.053232 -20.121670 0.000000
			CHANNELS 3 Xrotation Zrotation Yrotation 
			JOINT rFoot
			{
				OFFSET 0.000000 -19.300380 -1.231939
				CHANNELS 3 Xrotation Yrotation Zrotation 
				End Site
				{
					OFFSET 0.000000 -2.463878 4.653993
				}
			}
		}
	}
}
MOTION
Frames: 16
Frame Time: 0.049989
-38.000305 5.996777 0.000000 -94.004440 0.000000 0.000000 6.504652 -1.385748 -0.300989 7.001505 -0.603148 -0.645666 28.997015 0.000000 0.000000 29.355621 4.235815 -0.040123 1.525989 18.526968 3.215023 38.002968 3.139160 -2.689474 -110.029800 -9.832726 -4.235707 -34.703339 -8.063783 -49.000256 0.256128 -20.264347 3.209836 -34.359497 0.149270 -1.961519 94.761406 13.342759 -0.975870 33.618366 16.755295 -44.485538 -41.044521 14.663192 -1.681207 132.725571 6.700544 -2.329384 3.644640 12.764700 10.899352 -33.649387 -15.383446 5.145903 109.671371 8.825468 -0.971541 14.903048 2.746848 15.138244 
-38.000305 5.996777 0.000000 -94.004440 0.000000 0.000000 6.000626 -1.296723 -0.279436 7.735105 -0.602601 -0.643594 28.997015 0.000000 0.000000 28.543779 3.934119 -0.065151 1.771558 18.877119 2.876217 37.589882 2.900097 -2.628719 -108.954498 -10.110017 -4.037348 -34.428272 -8.917510 -48.414207 -0.121988 -20.495424 2.869438 -34.205318 0.150419 -1.941606 94.761406 13.342759 -0.975870 33.467171 17.000620 -44.230549 -41.114059 15.117189 -1.565157 132.725571 6.700544 -2.329384 3.581364 12.546512 11.384480 -33.532406 -16.029774 4.687959 109.671371 8.825468 -0.971541 14.797610 3.042841 14.399158 
-38.000305 5.996777 0.000000 -94.004440 0.000000 0.000000 5.496541 -1.207491 -0.258664 8.469033 -0.602080 -0.641515 28.997015 0.000000 0.000000 27.731833 3.631909 -0.085896 2.019885 19.225958 2.535042 37.176540 2.661431 -2.566241 -107.876205 -10.383864 -3.833354 -34.161137 -9.774831 -47.830299 -0.502208 -20.724428 2.526839 -34.051132 0.151514 -1.921690 94.761406 13.342759 -0.975870 33.316902 17.246620 -43.975864 -41.182800 15.571405 -1.449404 132.725571 6.700544 -2.329384 3.520022 12.327760 11.869065 -33.409565 -16.675499 4.226882 109.671371 8.825468 -0.971541 14.695915 3.340330 13.659997 
-38.000305 5.996777 0.000000 -94.004440 0.000000 0.000000 4.992412 -1.118064 -0.238676 9.203234 -0.601585 -0.639429 28.997015 0.000000 0.000000 26.919836 3.329280 -0.102350 2.270986 19.573446 2.191477 36.762943 2.423182 -2.502042 -106.795074 -10.654099 -3.623797 -33.901970 -10.635496 -47.248405 -0.884522 -20.951326 2.182047 -33.896935 0.152555 -1.901770 94.761406 13.342759 -0.975870 33.167568 17.493292 -43.721500 -41.250751 16.025826 -1.333940 132.725571 6.700544 -2.329384 3.460613 12.108465 12.353102 -33.280819 -17.320532 3.762572 109.671371 8.825468 -0.971541 14.598006 3.639239 12.920807 
-38.000305 5.996777 0.000000 -94.004440 0.000000 0.000000 4.488259 -1.028452 -0.219473 9.937645 -0.601117 -0.637336 28.997015 0.000000 0.000000 26.107843 3.026329 -0.114506 2.524878 19.919544 1.845502 36.349106 2.185374 -2.436126 -105.711304 -10.920569 -3.408757 -33.650814 -11.499255 -46.668404 -1.268919 -21.176088 1.835074 -33.742748 0.153543 -1.881848 94.761406 13.342759 -0.975870 33.019157 17.740608 -43.467422 -41.317921 16.480436 -1.218759 132.725571 6.700544 -2.329384 3.403139 11.888657 12.836578 -33.146072 -17.964748 3.294921 109.671371 8.825468 -0.971541 14.503900 3.939488 12.181611 
-38.000305 5.996777 0.000000 -94.004440 0.000000 0.000000 3.984100 -0.938666 -0.201058 10.672208 -0.600676 -0.635236 28.997015 0.000000 0.000000 25.295898 2.723149 -0.122362 2.781578 20.264227 1.497100 35.935005 1.948026 -2.368496 -104.625023 -11.183107 -3.188322 -33.407707 -12.365860 -46.090168 -1.655390 -21.398685 1.485932 -33.588558 0.154477 -1.861923 94.761406 13.342759 -0.975870 32.871696 17.988571 -43.213665 -41.384296 16.935211 -1.103848 132.725571 6.700544 -2.329384 3.347604 11.668364 13.319497 -33.005245 -18.608046 2.823823 109.671371 8.825468 -0.971541 14.413630 4.240999 11.442451 
-38.000305 5.996777 0.000000 -94.004440 0.000000 0.000000 3.479952 -0.848716 -0.183433 11.406863 -0.600261 -0.633131 28.997015 0.000000 0.000000 24.484043 2.419836 -0.125916 3.041101 20.607445 1.146252 35.520679 1.711161 -2.299159 -103.536446 -11.441567 -2.962584 -33.172699 -13.235057 -45.513561 -2.043922 -21.619093 1.134633 -33.434364 0.155357 -1.841995 94.761406 13.342759 -0.975870 32.725170 18.237160 -42.960205 -41.449883 17.390133 -0.989201 132.725571 6.700544 -2.329384 3.294003 11.447601 13.801846 -32.858269 -19.250309 2.349171 109.671371 8.825468 -0.971541 14.327218 4.543691 10.703357 
-38.000305 5.996777 0.000000 -94.004440 0.000000 0.000000 2.975832 -0.758612 -0.166600 12.141543 -0.599874 -0.631021 28.997015 0.000000 0.000000 23.672342 2.116486 -0.125167 3.303464 20.949171 0.792939 35.106094 1.474798 -2.228115 -102.445732 -11.695794 -2.731647 -32.945835 -14.106594 -44.938450 -2.434501 -21.837273 0.781189 -33.280167 0.156184 -1.822065 94.761406 13.342759 -0.975870 32.579601 18.486366 -42.707035 -41.514679 17.845194 -0.874811 132.725571 6.700544 -2.329384 3.242339 11.226398 14.283618 -32.705036 -19.891422 1.870850 109.671371 8.825468 -0.971541 14.244696 4.847486 9.964366 
-38.000305 5.996777 0.000000 -94.004440 0.000000 0.000000 2.471759 -0.668366 -0.150562 12.876198 -0.599514 -0.628906 28.997015 0.000000 0.000000 22.860823 1.813194 -0.120120 3.568682 21.289368 0.437145 34.691254 1.238960 -2.155370 -101.353073 -11.945639 -2.495613 -32.727158 -14.980215 -44.364693 -2.827116 -22.053202 0.425615 -33.125969 0.156958 -1.802133 94.761406 13.342759 -0.975870 32.434971 18.736176 -42.454178 -41.578693 18.300367 -0.760668 132.725571 6.700544 -2.329384 3.192612 11.004786 14.764813 -32.545471 -20.531271 1.388750 109.671371 8.825468 -0.971541 14.166076 5.152299 9.225506 
-38.000305 5.996777 0.000000 -94.004440 0.000000 0.000000 1.967751 -0.577987 -0.135320 13.610762 -0.599181 -0.626787 28.997015 0.000000 0.000000 22.049547 1.510057 -0.110779 3.836771 21.627996 0.078851 34.276199 1.003668 -2.080931 -100.258659 -12.190962 -2.254596 -32.516716 -15.855670 -43.792133 -3.221751 -22.266851 0.067925 -32.971775 0.157677 -1.782199 94.761406 13.342759 -0.975870 32.291306 18.986578 -42.201618 -41.641907 18.755636 -0.646763 132.725571 6.700544 -2.329384 3.144823 10.782788 15.245426 -32.379475 -21.169739 0.902757 109.671371 8.825468 -0.971541 14.091382 5.458052 8.486813 
-38.000305 5.996777 0.000000 -94.004440 0.000000 0.000000 1.463823 -0.487487 -0.120874 14.345172 -0.598875 -0.624664 28.997015 0.000000 0.000000 21.238552 1.207168 -0.097151 4.107746 21.965019 -0.281960 33.860882 0.768942 -2.004800 -99.162720 -12.431627 -2.008718 -32.314560 -16.732702 -43.220638 -3.618390 -22.478189 -0.291864 -32.817585 0.158343 -1.762263 94.761406 13.342759 -0.975870 32.148598 19.237558 -41.949356 -41.704327 19.210983 -0.533089 132.725571 6.700544 -2.329384 3.098968 10.560425 15.725449 -32.206974 -21.806719 0.412756 109.671371 8.825468 -0.971541 14.020638 5.764662 7.748318 
-38.000305 5.996777 0.000000 -94.004440 0.000000 0.000000 0.959996 -0.396876 -0.107227 15.079376 -0.598597 -0.622538 28.997015 0.000000 0.000000 20.427883 0.904624 -0.079247 4.381620 22.300404 -0.645304 33.445328 0.534803 -1.926983 -98.065384 -12.667496 -1.758099 -32.120766 -17.611065 -42.650051 -4.017017 -22.687181 -0.653736 -32.663391 0.158955 -1.742326 94.761406 13.342759 -0.975870 32.006855 19.489107 -41.697388 -41.765965 19.666391 -0.419635 132.725571 6.700544 -2.329384 3.055048 10.337727 16.204876 -32.027859 -22.442085 -0.081374 109.671371 8.825468 -0.971541 13.953855 6.072046 7.010051 
-38.000305 5.996777 0.000000 -94.004440 0.000000 0.000000 0.456285 -0.306165 -0.094380 15.813300 -0.598345 -0.620409 28.997015 0.000000 0.000000 19.617598 0.602518 -0.057077 4.658409 22.634108 -1.011197 33.029533 0.301273 -1.847484 -96.966919 -12.898447 -1.502876 -31.935369 -18.490499 -42.080193 -4.417617 -22.893814 -1.017675 -32.509201 0.159514 -1.722387 94.761406 13.342759 -0.975870 31.866095 19.741217 -41.445728 -41.826801 20.121840 -0.306394 132.725571 6.700544 -2.329384 3.013061 10.114716 16.683706 -31.842056 -23.075733 -0.579751 109.671371 8.825468 -0.971541 13.891050 6.380122 6.272044 
-38.000305 5.996777 0.000000 -94.004440 0.000000 0.000000 -0.047291 -0.215365 -0.082334 16.546898 -0.598122 -0.618278 28.997015 0.000000 0.000000 18.807735 0.300946 -0.030656 4.938128 22.966106 -1.379657 32.613506 0.068371 -1.766312 -95.867493 -13.124352 -1.243179 -31.758461 -19.370758 -41.510921 -4.820171 -23.098051 -1.383661 -32.355011 0.160019 -1.702448 94.761406 13.342759 -0.975870 31.726301 19.993866 -41.194355 -41.886856 20.577318 -0.193358 132.725571 6.700544 -2.329384 2.973004 9.891417 17.161928 -31.649427 -23.707521 -1.082498 109.671371 8.825468 -0.971541 13.832242 6.688809 5.534326 
-38.000305 5.996777 0.000000 -94.004440 0.000000 0.000000 -0.550715 -0.124485 -0.071089 17.280102 -0.597925 -0.616146 28.997015 0.000000 0.000000 17.998348 0.000000 0.000000 5.220785 23.296347 -1.750697 32.197239 -0.163881 -1.683468 -94.767326 -13.345096 -0.979156 -31.590090 -20.251591 -40.942070 -5.224659 -23.299866 -1.751675 -32.200829 0.160470 -1.682507 94.761406 13.342759 -0.975870 31.587488 20.247049 -40.943275 -41.946106 21.032799 -0.080516 132.725571 6.700544 -2.329384 2.934877 9.667858 17.639540 -31.449917 -24.337358 -1.589737 109.671371 8.825468 -0.971541 13.777433 6.998019 4.796927 
-38.000305 5.996777 0.000000 -94.004440 0.000000 0.000000 -0.047291 -0.215365 -0.082334 16.546900 -0.598122 -0.618278 28.997015 0.000000 0.000000 18.807735 0.300946 -0.030656 4.938127 22.966103 -1.379657 32.613503 0.068371 -1.766311 -95.867493 -13.124352 -1.243179 -31.758461 -19.370758 -41.510921 -4.820171 -23.098053 -1.383661 -32.355011 0.160019 -1.702448 94.761406 13.342759 -0.975870 31.726301 19.993866 -41.194355 -41.886856 20.577318 -0.193358 132.725571 6.700544 -2.329384 2.973004 9.891417 17.161928 -31.649427 -23.707521 -1.082498 109.671371 8.825468 -0.971541 13.832240 6.688808 5.534326 
